<svg xmlns="http://www.w3.org/2000/svg" viewBox="0 0 50 50">
  <path d="M3 7C2.449219 7 2 7.449219 2 8L2 12C2 12.550781 2.449219 13 3 13L7 13C7.550781 13 8 12.550781 8 12L8 8C8 7.449219 7.550781 7 7 7 Z M 11.8125 8C10.707031 8.050781 9.855469 8.988281 9.90625 10.09375C9.957031 11.199219 10.894531 12.050781 12 12L46 12C46.722656 12.011719 47.390625 11.632813 47.753906 11.007813C48.121094 10.386719 48.121094 9.613281 47.753906 8.992188C47.390625 8.367188 46.722656 7.988281 46 8L12 8C11.9375 7.996094 11.875 7.996094 11.8125 8 Z M 3 17C2.449219 17 2 17.449219 2 18L2 22C2 22.550781 2.449219 23 3 23L7 23C7.550781 23 8 22.550781 8 22L8 18C8 17.449219 7.550781 17 7 17 Z M 11.8125 18C10.707031 18.050781 9.855469 18.988281 9.90625 20.09375C9.957031 21.199219 10.894531 22.050781 12 22L46 22C46.722656 22.011719 47.390625 21.632813 47.753906 21.007813C48.121094 20.386719 48.121094 19.613281 47.753906 18.992188C47.390625 18.367188 46.722656 17.988281 46 18L12 18C11.9375 17.996094 11.875 17.996094 11.8125 18 Z M 3 27C2.449219 27 2 27.445313 2 28L2 32C2 32.554688 2.449219 33 3 33L7 33C7.550781 33 8 32.554688 8 32L8 28C8 27.445313 7.550781 27 7 27 Z M 11.8125 28C10.707031 28.050781 9.855469 28.988281 9.90625 30.09375C9.957031 31.199219 10.894531 32.050781 12 32L46 32C46.722656 32.011719 47.390625 31.632813 47.753906 31.007813C48.121094 30.386719 48.121094 29.613281 47.753906 28.992188C47.390625 28.367188 46.722656 27.988281 46 28L12 28C11.9375 27.996094 11.875 27.996094 11.8125 28 Z M 3 37C2.449219 37 2 37.445313 2 38L2 42C2 42.554688 2.449219 43 3 43L7 43C7.550781 43 8 42.554688 8 42L8 38C8 37.445313 7.550781 37 7 37 Z M 11.8125 38C10.707031 38.050781 9.855469 38.988281 9.90625 40.09375C9.957031 41.199219 10.894531 42.050781 12 42L46 42C46.722656 42.011719 47.390625 41.632813 47.753906 41.007813C48.121094 40.386719 48.121094 39.613281 47.753906 38.992188C47.390625 38.367188 46.722656 37.988281 46 38L12 38C11.9375 37.996094 11.875 37.996094 11.8125 38Z" fill="#5B5B5B" />
</svg>