<svg xmlns="http://www.w3.org/2000/svg" viewBox="0 0 50 50">
  <path d="M7.8125 4C7.335938 4.089844 6.992188 4.511719 7 5L7 45C7 45.550781 7.449219 46 8 46L42 46C42.550781 46 43 45.550781 43 45L43 5C43 4.449219 42.550781 4 42 4L8 4C7.96875 4 7.9375 4 7.90625 4C7.875 4 7.84375 4 7.8125 4 Z M 9 6L41 6L41 44L9 44 Z M 14 12L14 14L17 14L17 12 Z M 20 12L20 14L37 14L37 12 Z M 14 20L14 22L17 22L17 20 Z M 20 20L20 22L37 22L37 20 Z M 14 28L14 30L17 30L17 28 Z M 20 28L20 30L37 30L37 28 Z M 14 36L14 38L17 38L17 36 Z M 20 36L20 38L37 38L37 36Z" fill="#5B5B5B" />
</svg>