<svg xmlns="http://www.w3.org/2000/svg" viewBox="0 0 50 50"><path d="M42.875 8.625C42.84375 8.632813 42.8125 8.644531 42.78125 8.65625C42.519531 8.722656 42.292969 8.890625 42.15625 9.125L21.71875 40.8125L7.65625 28.125C7.410156 27.8125 7 27.675781 6.613281 27.777344C6.226563 27.878906 5.941406 28.203125 5.882813 28.597656C5.824219 28.992188 6.003906 29.382813 6.34375 29.59375L21.25 43.09375C21.46875 43.285156 21.761719 43.371094 22.050781 43.328125C22.339844 43.285156 22.59375 43.121094 22.75 42.875L43.84375 10.1875C44.074219 9.859375 44.085938 9.425781 43.875 9.085938C43.664063 8.746094 43.269531 8.566406 42.875 8.625Z"/></svg>