<svg xmlns="http://www.w3.org/2000/svg" viewBox="0 0 40 40"><path fill="#ffc49c" d="M8.5 2.5H35.5V33.5H8.5z"/><path fill="#a16a4a" d="M35,3v30L9,33V3H35 M36,2H8v32l28,0V2L36,2z"/><path fill="#ffc49c" d="M5.5,35V5c0-1.378,1.122-2.5,2.5-2.5h0.5V35H5.5z"/><path fill="#a16a4a" d="M8,3v31.5H6V5C6,3.897,6.897,3,8,3 M9,2H8C6.343,2,5,3.343,5,5v30.5h4V2L9,2z"/><path fill="#ffd5b8" d="M9 3H10V33H9z"/><path fill="#db996c" d="M9,3H8C6.895,3,6,3.895,6,5v30.231h3V3z"/><path fill="#fff" d="M7.5,37.5c-1.103,0-2-0.897-2-2s0.897-2,2-2h28v0.34C35.321,34.112,35,34.71,35,35.5 s0.321,1.388,0.5,1.66v0.34H7.5z"/><path fill="#a16a4a" d="M34.839 34c-.174.371-.339.884-.339 1.5 0 .616.165 1.13.339 1.5H7.5C6.673 37 6 36.327 6 35.5S6.673 34 7.5 34H34.839M36 33H7.5C6.119 33 5 34.119 5 35.5S6.119 38 7.5 38H36v-1c0 0-.5-.597-.5-1.5 0-.903.5-1.5.5-1.5V33L36 33zM16.374 19.435c-.048-.768-.096-1.812-.084-2.675h-.024c-.144.863-.36 1.859-.516 2.482l-.708 2.891h-1.104l-.671-2.843c-.156-.647-.372-1.655-.504-2.53H12.74c-.024.875-.084 1.895-.12 2.698l-.144 2.807h-1.343l.576-8.084h1.667l.647 2.927c.216 1.02.42 1.919.564 2.83h.036c.12-.899.3-1.811.504-2.83l.647-2.927h1.655l.492 8.084h-1.403L16.374 19.435zM24.15 18.079c0 3.046-1.079 4.281-2.614 4.281-1.835 0-2.555-1.942-2.555-4.161 0-2.207.875-4.114 2.675-4.114C23.599 14.085 24.15 16.232 24.15 18.079zM20.612 18.223c0 1.835.348 2.771.983 2.771.671 0 .923-1.199.923-2.842 0-1.416-.216-2.699-.936-2.699C20.96 15.452 20.612 16.483 20.612 18.223zM25.449 14.301c.479-.107 1.115-.155 1.787-.155.756 0 1.487.096 2.051.575.432.36.611.899.611 1.463 0 .72-.372 1.416-1.163 1.764v.048c.936.264 1.427 1.031 1.427 1.931 0 .66-.216 1.188-.6 1.583-.48.528-1.295.815-2.651.815-.6 0-1.104-.035-1.463-.096V14.301zM27.02 17.503h.336c.564 0 .996-.479.996-1.139 0-.588-.276-1.044-.912-1.044-.18 0-.324.012-.42.048V17.503zM27.02 21.089c.096.024.216.024.348.024.647 0 1.163-.396 1.163-1.211 0-.816-.552-1.235-1.175-1.235H27.02V21.089zM33.116 14.181v8.084h-1.571v-8.084H33.116z"/></svg>