<svg xmlns="http://www.w3.org/2000/svg" viewBox="0 0 80 80"><path fill="#dcd5f2" d="M12.5 75.5L12.5 4.5 49.793 4.5 67.5 22.207 67.5 75.5z"/><path fill="#8b75a1" d="M49.586,5L67,22.414V75H13V5H49.586 M50,4H12v72h56V22L50,4L50,4z"/><path fill="#fff" d="M49.5 22.5L49.5 4.5 49.793 4.5 67.5 22.207 67.5 22.5z"/><path fill="#8b75a1" d="M50,5.414L66.586,22H50V5.414 M50,4h-1v19h19v-1L50,4L50,4z"/><path fill="#7c6394" d="M26.931 38.729h-3.094v-3.146h9.621v3.146h-3.12v14.379h-3.406V38.729zM41.698 53.107l-1.092-3.225c-.338-1.014-.65-2.002-.936-3.119h-.078c-.286 1.117-.546 2.184-.806 3.172l-.936 3.172h-3.38l3.276-8.971L34.6 35.583h3.536l1.04 3.25c.26.91.521 1.82.78 2.808h.052c.286-1.065.521-1.897.754-2.859l.884-3.198h3.406l-3.276 8.71 3.458 8.814H41.698zM49.238 38.729h-3.094v-3.146h9.621v3.146h-3.12v14.379h-3.406V38.729z"/></svg>