<svg xmlns="http://www.w3.org/2000/svg" viewBox="0 0 40 40"><path fill="#ffc49c" d="M7.5 2.5H34.5V33.5H7.5z"/><path fill="#a16a4a" d="M34,3v30L8,33V3H34 M35,2H7v32l28,0V2L35,2z"/><path fill="#ffc49c" d="M4.5,35V5c0-1.378,1.121-2.5,2.5-2.5h0.5V35H4.5z"/><path fill="#a16a4a" d="M7,3v31.5H5V5C5,3.897,5.897,3,7,3 M8,2H7C5.343,2,4,3.343,4,5v30.5h4V2L8,2z"/><path fill="#ffd5b8" d="M8 3H9V33H8z"/><path fill="#db996c" d="M8,3H7C5.895,3,5,3.895,5,5v30.231h3V3z"/><path fill="#fff" d="M6.5,37.5c-1.103,0-2-0.897-2-2s0.897-2,2-2h28v0.34C34.321,34.112,34,34.71,34,35.5 s0.321,1.388,0.5,1.66v0.34H6.5z"/><path fill="#a16a4a" d="M33.839 34c-.174.371-.339.884-.339 1.5 0 .616.165 1.13.339 1.5H6.5C5.673 37 5 36.327 5 35.5S5.673 34 6.5 34H33.839M35 33H6.5C5.119 33 4 34.119 4 35.5S5.119 38 6.5 38H35v-1c0 0-.5-.597-.5-1.5 0-.903.5-1.5.5-1.5V33L35 33zM14.195 18.578h-1.989v2.366h2.249v1.482h-3.952v-8.762h3.81v1.482h-2.106v2.015h1.989V18.578zM15.495 13.794c.481-.104 1.132-.169 1.781-.169 1.015 0 1.82.143 2.379.676.521.455.754 1.183.754 1.924 0 .949-.285 1.625-.74 2.106-.546.585-1.417.845-2.133.845-.116 0-.221 0-.338-.013v3.263h-1.703V13.794zM17.198 17.785c.091.013.183.013.286.013.858 0 1.235-.611 1.235-1.43 0-.767-.312-1.365-1.105-1.365-.155 0-.312.026-.416.065V17.785zM22.957 13.664v5.694c0 1.287.377 1.677.832 1.677.494 0 .845-.351.845-1.677v-5.694h1.703v5.395c0 2.249-.857 3.471-2.535 3.471-1.833 0-2.548-1.261-2.548-3.458v-5.408H22.957zM27.676 13.794c.521-.117 1.209-.169 1.938-.169.819 0 1.612.104 2.223.624.469.39.663.975.663 1.586 0 .78-.402 1.534-1.261 1.911v.052c1.014.286 1.547 1.118 1.547 2.093 0 .715-.233 1.287-.649 1.716-.521.572-1.404.884-2.874.884-.649 0-1.195-.039-1.586-.104V13.794zM29.379 17.265h.364c.611 0 1.079-.52 1.079-1.235 0-.637-.299-1.131-.988-1.131-.194 0-.351.013-.455.052V17.265zM29.379 21.152c.104.026.234.026.377.026.702 0 1.262-.429 1.262-1.313 0-.884-.599-1.339-1.274-1.339h-.364V21.152z"/></svg>