<svg xmlns="http://www.w3.org/2000/svg" viewBox="0 0 50 50">
  <path d="M12 2C8.691 2 6 4.691 6 8L6 42.417969C6 45.495969 8.691 48 12 48L44 48L44 46L12 46C9.832 46 8 44.359969 8 42.417969C8 40.501969 9.757 39 12 39L44 39L44 31.302734C43.356 31.530734 42.689 31.704313 42 31.820312L42 37L12 37C10.45 37 9.054 37.504656 8 38.347656L8 8C8 5.794 9.794 4 12 4L42 4L42 8.1796875C42.689 8.2956875 43.356 8.4692656 44 8.6972656L44 2L12 2 z M 40 10C34.5 10 30 14.5 30 20C30 25.5 34.5 30 40 30C45.5 30 50 25.5 50 20C50 14.5 45.5 10 40 10 z M 40 12C44.4 12 48 15.6 48 20C48 24.4 44.4 28 40 28C35.6 28 32 24.4 32 20C32 15.6 35.6 12 40 12 z M 40 14.099609C39.4 14.099609 39 14.499609 39 15.099609L39 19L35.099609 19C34.499609 19 34.099609 19.4 34.099609 20C34.099609 20.6 34.499609 21 35.099609 21L39 21L39 24.900391C39 25.500391 39.4 25.900391 40 25.900391C40.6 25.900391 41 25.500391 41 24.900391L41 21L44.900391 21C45.500391 21 45.900391 20.6 45.900391 20C45.900391 19.4 45.500391 19 44.900391 19L41 19L41 15.099609C41 14.499609 40.6 14.099609 40 14.099609 z" fill="#5B5B5B" />
</svg>