<svg xmlns="http://www.w3.org/2000/svg" viewBox="0 0 50 50">
  <path d="M7 4C5.3545455 4 4 5.3545455 4 7L4 43C4 44.645455 5.3545455 46 7 46L43 46C44.645455 46 46 44.645455 46 43L46 13.199219 A 1.0001 1.0001 0 0 0 45.707031 12.492188L37.507812 4.2929688 A 1.0001 1.0001 0 0 0 36.800781 4L7 4 z M 7 6L12 6L12 18C12 19.645455 13.354545 21 15 21L34 21C35.645455 21 37 19.645455 37 18L37 6.6132812L44 13.613281L44 43C44 43.554545 43.554545 44 43 44L38 44L38 29C38 27.354545 36.645455 26 35 26L15 26C13.354545 26 12 27.354545 12 29L12 44L7 44C6.4454545 44 6 43.554545 6 43L6 7C6 6.4454545 6.4454545 6 7 6 z M 14 6L35 6L35 18C35 18.554545 34.554545 19 34 19L15 19C14.445455 19 14 18.554545 14 18L14 6 z M 29 8 A 1.0001 1.0001 0 0 0 28 9L28 16 A 1.0001 1.0001 0 0 0 29 17L32 17 A 1.0001 1.0001 0 0 0 33 16L33 9 A 1.0001 1.0001 0 0 0 32 8L29 8 z M 30 10L31 10L31 15L30 15L30 10 z M 15 28L35 28C35.554545 28 36 28.445455 36 29L36 44L14 44L14 29C14 28.445455 14.445455 28 15 28 z M 8 40L8 42L10 42L10 40L8 40 z M 40 40L40 42L42 42L42 40L40 40 z" fill="#5B5B5B" />
</svg>