<svg xmlns="http://www.w3.org/2000/svg" viewBox="0 0 50 50">
  <path d="M19 9C17.355469 9 16 10.355469 16 12L16 18L3 18C1.355469 18 0 19.355469 0 21L0 39.8125C0 40.363281 0.449219 40.8125 1 40.8125L49 40.8125C49.550781 40.8125 50 40.363281 50 39.8125L50 25C50 23.355469 48.644531 22 47 22L34 22L34 12C34 10.355469 32.644531 9 31 9 Z M 19 11L31 11C31.554688 11 32 11.445313 32 12L32 23C32 23.550781 32.449219 24 33 24L47 24C47.554688 24 48 24.445313 48 25L48 38.8125L2 38.8125L2 21C2 20.445313 2.445313 20 3 20L17 20C17.550781 20 18 19.550781 18 19L18 12C18 11.445313 18.445313 11 19 11 Z M 24.8125 14C24.710938 14.5 24.488281 14.800781 24.1875 15C23.886719 15.199219 23.40625 15.3125 22.90625 15.3125L22.8125 15.3125L22.8125 16.40625L24.40625 16.40625L24.40625 22L26 22L26 14 Z M 9.5 23C8.601563 23 7.992188 23.195313 7.59375 23.59375C7.195313 23.992188 7 24.511719 7 25.3125L7 25.59375L8.59375 25.59375L8.59375 25C8.59375 24.800781 8.585938 24.601563 8.6875 24.5L9 24.1875C9.101563 24.085938 9.300781 24.09375 9.5 24.09375C10 24.09375 10.3125 24.394531 10.3125 25.09375L10.3125 25.6875C10.3125 25.789063 10.289063 25.992188 10.1875 26.09375C10.085938 26.195313 10.007813 26.398438 9.90625 26.5L9.5 26.90625L8.8125 27.5C8.511719 27.800781 8.199219 28.011719 8 28.3125C7.699219 28.511719 7.507813 28.792969 7.40625 29.09375L7.09375 30C6.992188 30.300781 7 30.601563 7 31L12 31L12 29.6875L9 29.6875C9 29.585938 9.09375 29.386719 9.09375 29.1875L11.1875 27.09375C11.386719 26.894531 11.492188 26.699219 11.59375 26.5C11.695313 26.300781 11.8125 26.105469 11.8125 25.90625C11.914063 25.707031 11.90625 25.488281 11.90625 25.1875C11.90625 24.488281 11.710938 23.992188 11.3125 23.59375C10.914063 23.195313 10.300781 23 9.5 23 Z M 40.59375 27C39.894531 27 39.304688 27.195313 38.90625 27.59375C38.507813 27.992188 38.3125 28.605469 38.3125 29.40625L39.8125 29.40625L39.8125 28.90625C39.8125 28.804688 39.804688 28.601563 39.90625 28.5L40.1875 28.1875C40.289063 28.085938 40.394531 28.09375 40.59375 28.09375C40.894531 28.09375 41.085938 28.113281 41.1875 28.3125C41.289063 28.414063 41.40625 28.695313 41.40625 29.09375C41.40625 29.292969 41.3125 29.394531 41.3125 29.59375C41.210938 29.792969 41.195313 29.898438 41.09375 30L40.8125 30.3125C40.710938 30.414063 40.605469 30.40625 40.40625 30.40625L39.90625 30.40625L39.90625 31.5L40.40625 31.5C40.605469 31.5 40.804688 31.492188 40.90625 31.59375L41.1875 31.90625C41.289063 32.007813 41.40625 32.113281 41.40625 32.3125L41.40625 33.3125C41.40625 33.414063 41.414063 33.585938 41.3125 33.6875L41 34C40.898438 34.101563 40.699219 34.09375 40.5 34.09375C40.199219 34.09375 39.914063 33.886719 39.8125 33.6875C39.710938 33.386719 39.613281 33.113281 39.8125 32.8125L38.1875 32.8125C38.1875 33.613281 38.414063 34.195313 38.8125 34.59375C39.113281 34.992188 39.699219 35.1875 40.5 35.1875C41 35.1875 41.511719 35.101563 41.8125 35C42.113281 34.800781 42.394531 34.605469 42.59375 34.40625C42.792969 34.105469 42.898438 33.894531 43 33.59375C43.101563 33.292969 43.09375 33.113281 43.09375 32.8125C43.09375 32.3125 43.011719 31.800781 42.8125 31.5C42.613281 31.199219 42.1875 31.007813 41.6875 30.90625C42.085938 30.804688 42.394531 30.613281 42.59375 30.3125C42.792969 30.011719 42.90625 29.59375 42.90625 29.09375C42.90625 28.292969 42.710938 27.800781 42.3125 27.5C41.914063 27.199219 41.292969 27 40.59375 27Z" fill="#5B5B5B" />
</svg>