<svg xmlns="http://www.w3.org/2000/svg" viewBox="0 0 50 50">
  <path d="M2.84375 3C1.285156 3 0 4.285156 0 5.84375L0 10.8125C-0.00390625 10.855469 -0.00390625 10.894531 0 10.9375L0 46C0 46.550781 0.449219 47 1 47L49 47C49.550781 47 50 46.550781 50 46L50 11C50 10.96875 50 10.9375 50 10.90625L50 5.84375C50 4.285156 48.714844 3 47.15625 3 Z M 2.84375 5L47.15625 5C47.636719 5 48 5.363281 48 5.84375L48 10L2 10L2 5.84375C2 5.363281 2.363281 5 2.84375 5 Z M 2 12L48 12L48 45L2 45 Z M 14.90625 19.9375C14.527344 19.996094 14.214844 20.265625 14.101563 20.628906C13.988281 20.996094 14.09375 21.394531 14.375 21.65625L19.59375 27.03125L14.21875 32.25C13.820313 32.636719 13.816406 33.273438 14.203125 33.671875C14.589844 34.070313 15.226563 34.074219 15.625 33.6875L21.6875 27.75L22.40625 27.0625L21.71875 26.34375L15.78125 20.25C15.601563 20.058594 15.355469 19.949219 15.09375 19.9375C15.03125 19.929688 14.96875 19.929688 14.90625 19.9375 Z M 22.8125 32C22.261719 32.050781 21.855469 32.542969 21.90625 33.09375C21.957031 33.644531 22.449219 34.050781 23 34L36 34C36.359375 34.003906 36.695313 33.816406 36.878906 33.503906C37.058594 33.191406 37.058594 32.808594 36.878906 32.496094C36.695313 32.183594 36.359375 31.996094 36 32L23 32C22.96875 32 22.9375 32 22.90625 32C22.875 32 22.84375 32 22.8125 32Z" fill="#5B5B5B" />
</svg>