<svg xmlns="http://www.w3.org/2000/svg" viewBox="0 0 50 50">
  <path d="M9 19C5.691406 19 3 21.691406 3 25C3 28.308594 5.691406 31 9 31C12.308594 31 15 28.308594 15 25C15 21.691406 12.308594 19 9 19 Z M 25 19C21.691406 19 19 21.691406 19 25C19 28.308594 21.691406 31 25 31C28.308594 31 31 28.308594 31 25C31 21.691406 28.308594 19 25 19 Z M 41 19C37.691406 19 35 21.691406 35 25C35 28.308594 37.691406 31 41 31C44.308594 31 47 28.308594 47 25C47 21.691406 44.308594 19 41 19Z" fill="#5B5B5B" />
</svg>