<svg xmlns="http://www.w3.org/2000/svg" viewBox="0 0 50 50">
  <path d="M9 4C6.2504839 4 4 6.2504839 4 9L4 41C4 43.749516 6.2504839 46 9 46L41 46C43.749516 46 46 43.749516 46 41L46 9C46 6.2504839 43.749516 4 41 4L9 4 z M 9 6L41 6C42.668484 6 44 7.3315161 44 9L44 41C44 42.668484 42.668484 44 41 44L9 44C7.3315161 44 6 42.668484 6 41L6 9C6 7.3315161 7.3315161 6 9 6 z M 14.490234 11C13.254768 11 12.040671 11.09143 10.853516 11.267578 A 1.0001 1.0001 0 1 0 11.146484 13.246094C12.237329 13.084239 13.3537 13 14.490234 13C26.933826 13 37 23.065264 37 35.507812C37 36.645389 36.91663 37.76128 36.753906 38.851562 A 1.0001 1.0001 0 1 0 38.730469 39.148438C38.90774 37.96072 39 36.744237 39 35.507812C39 21.984362 28.014643 11 14.490234 11 z M 14.503906 21C13.203347 21 11.940704 21.172601 10.740234 21.496094 A 1.0001433 1.0001433 0 1 0 11.259766 23.427734C12.293296 23.149227 13.380465 23 14.503906 23C21.414305 23 27 28.614589 27 35.574219C27 36.672124 26.860939 37.736188 26.599609 38.75 A 1.0001 1.0001 0 1 0 28.535156 39.25C28.837826 38.075812 29 36.842313 29 35.574219C29 27.539848 22.501507 21 14.503906 21 z M 14.5 31C12.026466 31 10 33.023266 10 35.5C10 37.970962 12.023711 40 14.5 40C16.976289 40 19 37.970962 19 35.5C19 33.023266 16.973534 31 14.5 31 z M 14.5 33C15.898466 33 17 34.098734 17 35.5C17 36.891038 15.895711 38 14.5 38C13.104289 38 12 36.891038 12 35.5C12 34.098734 13.101534 33 14.5 33 z" fill="#5B5B5B" />
</svg>