<svg xmlns="http://www.w3.org/2000/svg" viewBox="0 0 50 50">
  <path d="M22.205078 2 A 1.0001 1.0001 0 0 0 21.21875 2.8378906L20.246094 8.7929688C19.076509 9.1331971 17.961243 9.5922728 16.910156 10.164062L11.996094 6.6542969 A 1.0001 1.0001 0 0 0 10.708984 6.7597656L6.8183594 10.646484 A 1.0001 1.0001 0 0 0 6.7070312 11.927734L10.164062 16.873047C9.583454 17.930271 9.1142098 19.051824 8.765625 20.232422L2.8359375 21.21875 A 1.0001 1.0001 0 0 0 2.0019531 22.205078L2.0019531 27.705078 A 1.0001 1.0001 0 0 0 2.8261719 28.691406L8.7597656 29.742188C9.1064607 30.920739 9.5727226 32.043065 10.154297 33.101562L6.6542969 37.998047 A 1.0001 1.0001 0 0 0 6.7597656 39.285156L10.648438 43.175781 A 1.0001 1.0001 0 0 0 11.927734 43.289062L16.882812 39.820312C17.936999 40.39548 19.054994 40.857928 20.228516 41.201172L21.21875 47.164062 A 1.0001 1.0001 0 0 0 22.205078 48L27.705078 48 A 1.0001 1.0001 0 0 0 28.691406 47.173828L29.751953 41.1875C30.920633 40.838997 32.033372 40.369697 33.082031 39.791016L38.070312 43.291016 A 1.0001 1.0001 0 0 0 39.351562 43.179688L43.240234 39.287109 A 1.0001 1.0001 0 0 0 43.34375 37.996094L39.787109 33.058594C40.355783 32.014958 40.813915 30.908875 41.154297 29.748047L47.171875 28.693359 A 1.0001 1.0001 0 0 0 47.998047 27.707031L47.998047 22.207031 A 1.0001 1.0001 0 0 0 47.160156 21.220703L41.152344 20.238281C40.80968 19.078827 40.350281 17.974723 39.78125 16.931641L43.289062 11.933594 A 1.0001 1.0001 0 0 0 43.177734 10.652344L39.287109 6.7636719 A 1.0001 1.0001 0 0 0 37.996094 6.6601562L33.072266 10.201172C32.023186 9.6248101 30.909713 9.1579916 29.738281 8.8125L28.691406 2.828125 A 1.0001 1.0001 0 0 0 27.705078 2L22.205078 2 z M 23.056641 4L26.865234 4L27.861328 9.6855469 A 1.0001 1.0001 0 0 0 28.603516 10.484375C30.066026 10.848832 31.439607 11.426549 32.693359 12.185547 A 1.0001 1.0001 0 0 0 33.794922 12.142578L38.474609 8.7792969L41.167969 11.472656L37.835938 16.220703 A 1.0001 1.0001 0 0 0 37.796875 17.310547C38.548366 18.561471 39.118333 19.926379 39.482422 21.380859 A 1.0001 1.0001 0 0 0 40.291016 22.125L45.998047 23.058594L45.998047 26.867188L40.279297 27.871094 A 1.0001 1.0001 0 0 0 39.482422 28.617188C39.122545 30.069817 38.552234 31.434687 37.800781 32.685547 A 1.0001 1.0001 0 0 0 37.845703 33.785156L41.224609 38.474609L38.53125 41.169922L33.791016 37.84375 A 1.0001 1.0001 0 0 0 32.697266 37.808594C31.44975 38.567585 30.074755 39.148028 28.617188 39.517578 A 1.0001 1.0001 0 0 0 27.876953 40.3125L26.867188 46L23.052734 46L22.111328 40.337891 A 1.0001 1.0001 0 0 0 21.365234 39.53125C19.90185 39.170557 18.522094 38.59371 17.259766 37.835938 A 1.0001 1.0001 0 0 0 16.171875 37.875L11.46875 41.169922L8.7734375 38.470703L12.097656 33.824219 A 1.0001 1.0001 0 0 0 12.138672 32.724609C11.372652 31.458855 10.793319 30.079213 10.427734 28.609375 A 1.0001 1.0001 0 0 0 9.6328125 27.867188L4.0019531 26.867188L4.0019531 23.052734L9.6289062 22.117188 A 1.0001 1.0001 0 0 0 10.435547 21.373047C10.804273 19.898143 11.383325 18.518729 12.146484 17.255859 A 1.0001 1.0001 0 0 0 12.111328 16.164062L8.8261719 11.46875L11.523438 8.7734375L16.185547 12.105469 A 1.0001 1.0001 0 0 0 17.28125 12.148438C18.536908 11.394293 19.919867 10.822081 21.384766 10.462891 A 1.0001 1.0001 0 0 0 22.132812 9.6523438L23.056641 4 z M 25 17C20.593567 17 17 20.593567 17 25C17 29.406433 20.593567 33 25 33C29.406433 33 33 29.406433 33 25C33 20.593567 29.406433 17 25 17 z M 25 19C28.325553 19 31 21.674447 31 25C31 28.325553 28.325553 31 25 31C21.674447 31 19 28.325553 19 25C19 21.674447 21.674447 19 25 19 z" fill="#5B5B5B" />
</svg>