<svg xmlns="http://www.w3.org/2000/svg" viewBox="0 0 50 50">
  <path d="M12 4C9.2545455 4 7 6.2545455 7 9C4.2545455 9 2 11.254545 2 14L2 35C2 37.745455 4.2545455 40 7 40L10.884766 40C10.843526 40.975921 10.827266 41.968847 10.578125 42.681641C10.236066 43.660266 9.6802408 44.426318 8.4863281 45.142578 A 1.0001 1.0001 0 0 0 9 47C12.823788 47 17.309348 45.229491 19.572266 40L38 40C40.745455 40 43 37.745455 43 35C45.745455 35 48 32.745455 48 30L48 9C48 6.2545455 45.745455 4 43 4L12 4 z M 12 6L43 6C44.654545 6 46 7.3454545 46 9L46 30C46 31.654545 44.654545 33 43 33L43 14C43 11.254545 40.745455 9 38 9L9 9C9 7.3454545 10.345455 6 12 6 z M 7 11L38 11C39.654545 11 41 12.345455 41 14L41 35C41 36.654545 39.654545 38 38 38L19 38 A 1.0001 1.0001 0 0 0 18.060547 38.65625C16.683115 42.413196 14.271763 44.066624 11.714844 44.681641C11.999029 44.246253 12.30099 43.816168 12.466797 43.341797C12.942988 41.979422 13 40.530333 13 39 A 1.0001 1.0001 0 0 0 12 38L7 38C5.3454545 38 4 36.654545 4 35L4 14C4 12.345455 5.3454545 11 7 11 z" fill="#5B5B5B" />
</svg>