<svg xmlns="http://www.w3.org/2000/svg" viewBox="0 0 50 50">
  <path d="M4 0L4 48L21 48C21.359375 48.003906 21.695313 47.816406 21.878906 47.503906C22.058594 47.191406 22.058594 46.808594 21.878906 46.496094C21.695313 46.183594 21.359375 45.996094 21 46L6 46L6 2L24 2L24 16L38 16L38 27C37.996094 27.359375 38.183594 27.695313 38.496094 27.878906C38.808594 28.058594 39.191406 28.058594 39.503906 27.878906C39.816406 27.695313 40.003906 27.359375 40 27L40 14.59375L39.71875 14.28125L25.71875 0.28125L25.40625 0 Z M 26 3.4375L36.5625 14L26 14 Z M 45.90625 24.90625C44.855469 24.90625 43.800781 25.292969 43 26.09375L42.3125 26.8125L42.34375 26.84375L26.90625 42.28125C26.777344 42.398438 26.679688 42.550781 26.625 42.71875L24.9375 48.71875C24.835938 49.066406 24.925781 49.441406 25.179688 49.703125C25.433594 49.960938 25.804688 50.0625 26.15625 49.96875L32.15625 48.375C32.324219 48.320313 32.476563 48.222656 32.59375 48.09375L48.40625 32.40625C48.53125 32.296875 48.628906 32.15625 48.6875 32L48.8125 31.90625C50.414063 30.304688 50.414063 27.695313 48.8125 26.09375C48.011719 25.292969 46.957031 24.90625 45.90625 24.90625 Z M 43.75 28.25L46.75 31.25L31.40625 46.5L28.46875 43.65625L28.5 43.53125Z" fill="#5B5B5B" />
</svg>