<svg xmlns="http://www.w3.org/2000/svg" viewBox="0 0 50 50">
  <path d="M5 4C3.3550302 4 2 5.3550302 2 7L2 16L2 18L2 43C2 44.64497 3.3550302 46 5 46L45 46C46.64497 46 48 44.64497 48 43L48 19L48 16L48 11C48 9.3550302 46.64497 8 45 8L18 8C18.08657 8 17.96899 8.000364 17.724609 7.71875C17.480227 7.437136 17.179419 6.9699412 16.865234 6.46875C16.55105 5.9675588 16.221777 5.4327899 15.806641 4.9628906C15.391504 4.4929914 14.818754 4 14 4L5 4 z M 5 6L14 6C13.93925 6 14.06114 6.00701 14.308594 6.2871094C14.556051 6.5672101 14.857231 7.0324412 15.169922 7.53125C15.482613 8.0300588 15.806429 8.562864 16.212891 9.03125C16.619352 9.499636 17.178927 10 18 10L45 10C45.56503 10 46 10.43497 46 11L46 13.1875C45.685108 13.07394 45.351843 13 45 13L5 13C4.6481575 13 4.3148915 13.07394 4 13.1875L4 7C4 6.4349698 4.4349698 6 5 6 z M 5 15L45 15C45.56503 15 46 15.43497 46 16L46 19L46 43C46 43.56503 45.56503 44 45 44L5 44C4.4349698 44 4 43.56503 4 43L4 18L4 16C4 15.43497 4.4349698 15 5 15 z" fill="#5B5B5B" />
</svg>