<svg xmlns="http://www.w3.org/2000/svg" width="50" height="50" viewBox="0 0 50 50"><path d="M24.984375 2.9863281 A 1.0001 1.0001 0 0 0 24.423828 3.1699219 A 1.0001 1.0001 0 0 0 24.271484 3.3007812 A 1.0001 1.0001 0 0 0 24.207031 3.3769531 A 1.0001 1.0001 0 0 0 24.150391 3.4589844 A 1.0001 1.0001 0 0 0 24.101562 3.5449219 A 1.0001 1.0001 0 0 0 24.0625 3.6367188 A 1.0001 1.0001 0 0 0 24.033203 3.7324219 A 1.0001 1.0001 0 0 0 24 4L24 32.585938L17.707031 26.292969 A 1.0001 1.0001 0 0 0 17.470703 26.111328 A 1.0001 1.0001 0 0 0 17.46875 26.111328 A 1.0001 1.0001 0 0 0 16.173828 27.570312 A 1.0001 1.0001 0 0 0 16.181641 27.580078 A 1.0001 1.0001 0 0 0 16.236328 27.648438 A 1.0001 1.0001 0 0 0 16.292969 27.707031L24.205078 35.619141 A 1.0001 1.0001 0 0 0 24.226562 35.648438 A 1.0001 1.0001 0 0 0 24.292969 35.720703 A 1.0001 1.0001 0 0 0 24.396484 35.810547L25 36.414062L25.607422 35.806641 A 1.0001 1.0001 0 0 0 25.65625 35.769531 A 1.0001 1.0001 0 0 0 25.792969 35.623047 A 1.0001 1.0001 0 0 0 25.796875 35.617188L33.707031 27.707031 A 1.0001 1.0001 0 0 0 34.009766 27.091797 A 1.0001 1.0001 0 0 0 34.009766 26.890625 A 1.0001 1.0001 0 0 0 33.996094 26.792969 A 1.0001 1.0001 0 0 0 33.84375 26.425781 A 1.0001 1.0001 0 0 0 33.783203 26.345703 A 1.0001 1.0001 0 0 0 33.714844 26.271484 A 1.0001 1.0001 0 0 0 33.642578 26.205078 A 1.0001 1.0001 0 0 0 33.640625 26.205078 A 1.0001 1.0001 0 0 0 33.474609 26.097656 A 1.0001 1.0001 0 0 0 33.472656 26.097656 A 1.0001 1.0001 0 0 0 33.289062 26.023438 A 1.0001 1.0001 0 0 0 33.287109 26.023438 A 1.0001 1.0001 0 0 0 32.892578 25.992188 A 1.0001 1.0001 0 0 0 32.890625 25.992188 A 1.0001 1.0001 0 0 0 32.792969 26.009766 A 1.0001 1.0001 0 0 0 32.697266 26.037109 A 1.0001 1.0001 0 0 0 32.605469 26.072266 A 1.0001 1.0001 0 0 0 32.603516 26.074219 A 1.0001 1.0001 0 0 0 32.560547 26.095703 A 1.0001 1.0001 0 0 0 32.513672 26.119141 A 1.0001 1.0001 0 0 0 32.460938 26.154297 A 1.0001 1.0001 0 0 0 32.431641 26.171875 A 1.0001 1.0001 0 0 0 32.429688 26.173828 A 1.0001 1.0001 0 0 0 32.353516 26.234375 A 1.0001 1.0001 0 0 0 32.351562 26.236328 A 1.0001 1.0001 0 0 0 32.292969 26.292969L26 32.585938L26 4 A 1.0001 1.0001 0 0 0 25.996094 3.9003906 A 1.0001 1.0001 0 0 0 25.833984 3.4335938 A 1.0001 1.0001 0 0 0 25.773438 3.3515625 A 1.0001 1.0001 0 0 0 25.632812 3.2109375 A 1.0001 1.0001 0 0 0 25.466797 3.1015625 A 1.0001 1.0001 0 0 0 25.28125 3.0253906 A 1.0001 1.0001 0 0 0 24.984375 2.9863281 z M 2 36L2 42C2 44.745455 4.2545455 47 7 47L43 47C45.745455 47 48 44.745455 48 42L48 36L46 36L46 42C46 43.654545 44.654545 45 43 45L7 45C5.3454545 45 4 43.654545 4 42L4 36L2 36 z"/></svg>