<svg xmlns="http://www.w3.org/2000/svg" viewBox="0 0 50 50"><path d="M25 0.09375L24.28125 0.78125L15.78125 9.28125C15.382813 9.679688 15.382813 10.320313 15.78125 10.71875C16.179688 11.117188 16.820313 11.117188 17.21875 10.71875L24 3.9375L24 20L0 20L0 22L50 22L50 20L26 20L26 3.9375L32.78125 10.71875C33.179688 11.117188 33.820313 11.117188 34.21875 10.71875C34.617188 10.320313 34.617188 9.679688 34.21875 9.28125L25.71875 0.78125 Z M 24.90625 27.96875C24.875 27.976563 24.84375 27.988281 24.8125 28L0 28L0 30L24 30L24 46.0625L17.21875 39.28125C16.976563 39.03125 16.621094 38.925781 16.28125 39C15.90625 39.066406 15.605469 39.339844 15.5 39.703125C15.394531 40.070313 15.503906 40.460938 15.78125 40.71875L24.28125 49.21875L25 49.90625L25.71875 49.21875L34.21875 40.71875C34.617188 40.320313 34.617188 39.679688 34.21875 39.28125C33.820313 38.882813 33.179688 38.882813 32.78125 39.28125L26 46.0625L26 30L50 30L50 28L25.21875 28C25.117188 27.972656 25.011719 27.960938 24.90625 27.96875Z"/></svg>