<svg xmlns="http://www.w3.org/2000/svg" viewBox="0 0 50 50"><path d="M12.359375 4C11.445313 4 10.648438 4.621094 10.421875 5.507813L1.0625 42.511719C0.910156 43.109375 1.042969 43.742188 1.421875 44.230469C1.800781 44.714844 2.382813 45 3 45L8.199219 45C9.148438 45 9.964844 44.335938 10.15625 43.40625L11.90625 35L20.09375 35L21.84375 43.40625C22.035156 44.335938 22.851563 45 23.800781 45L29 45C29.617188 45 30.199219 44.714844 30.578125 44.230469C30.9375 43.769531 31.066406 43.171875 30.953125 42.605469C32.363281 44.125 34.40625 44.980469 36.78125 44.980469C38.195313 44.980469 39.722656 44.691406 41.34375 44.121094C41.414063 44.226563 41.496094 44.324219 41.589844 44.417969C41.964844 44.789063 42.472656 45 43 45L43.011719 45L47.011719 44.980469C48.109375 44.972656 48.996094 44.082031 49 42.980469C49 42.882813 49.011719 33.070313 49 30.988281L49 30.902344C48.988281 27.910156 48.964844 22.90625 45.109375 20.335938C43.757813 19.433594 41.957031 18.957031 39.90625 18.957031C36.449219 18.957031 32.671875 20.246094 29.800781 22.402344C29.347656 22.738281 29.058594 23.253906 29.007813 23.816406C28.957031 24.382813 29.144531 24.941406 29.53125 25.355469C29.894531 25.753906 32.144531 27.980469 32.59375 28.421875C32.980469 28.804688 33.488281 29 34 29C34.386719 29 34.769531 28.890625 35.109375 28.664063C36.121094 27.992188 38.058594 27 39 27C39.816406 27 40.597656 27 40.886719 29.003906C40.746094 29.003906 40.605469 29.003906 40.460938 29.003906C38.082031 29.003906 32.507813 29.003906 30.242188 32.785156C29.722656 33.652344 29.378906 34.59375 29.179688 35.550781L21.578125 5.507813C21.351563 4.621094 20.554688 4 19.640625 4 Z M 12.359375 6L19.640625 6L29 43L23.800781 43L21.71875 33L10.28125 33L8.199219 43L3 43 Z M 16 10L11 28L21 28 Z M 16 17.472656L18.371094 26L13.628906 26 Z M 39.90625 20.957031C41.5 20.957031 42.9375 21.289063 44 22C47 24 46.988281 28.183594 47 31C47.011719 33.101563 47 42.980469 47 42.980469L43 43L43 41.230469C40.550781 42.464844 38.476563 42.980469 36.78125 42.980469C31.273438 42.980469 29.710938 37.566406 31.957031 33.8125C33.496094 31.242188 37.527344 31 40.460938 31C41.132813 31 41.746094 31.015625 42.257813 31.015625C42.539063 31.015625 42.789063 31.007813 43 31C43 26.996094 42 25 39 25C37 25 34 27 34 27C34 27 31.355469 24.382813 31 24C33.582031 22.0625 37 20.960938 39.90625 20.957031 Z M 40 34C38.5 34 37.214844 33.96875 36.097656 34.289063C35.542969 34.449219 34.992188 34.71875 34.59375 35.203125C34.191406 35.6875 34 36.332031 34 37C34 38.257813 34.742188 39.324219 35.71875 39.703125C36.699219 40.085938 37.761719 39.96875 38.777344 39.640625C39.792969 39.308594 40.78125 38.742188 41.566406 37.972656C42.355469 37.207031 42.972656 36.199219 43 35.027344L43.027344 34 Z M 40 36L40.457031 36C40.335938 36.183594 40.359375 36.363281 40.171875 36.542969C39.640625 37.058594 38.882813 37.503906 38.160156 37.734375C37.441406 37.96875 36.765625 37.96875 36.445313 37.84375C36.125 37.714844 36 37.65625 36 37C36 36.667969 36.058594 36.5625 36.125 36.484375C36.195313 36.40625 36.332031 36.300781 36.652344 36.210938C37.285156 36.03125 38.5 36 40 36Z"/></svg>