<svg xmlns="http://www.w3.org/2000/svg" viewBox="0 0 50 50"><path d="M25 2C15.621094 2 8 9.625 8 19C8 25.640625 12.464844 33.492188 18 37.34375L18 43C18 44.644531 19.355469 46 21 46L23 48L27 48L29 46C30.644531 46 32 44.644531 32 43L32 37.34375C37.535156 33.492188 42 25.640625 42 19C42 9.625 34.378906 2 25 2 Z M 25 4C33.296875 4 40 10.703125 40 19C40 24.867188 35.402344 32.753906 30.375 36L19.625 36C14.597656 32.753906 10 24.867188 10 19C10 10.703125 16.703125 4 25 4 Z M 20 38L30 38L30 43C30 43.566406 29.566406 44 29 44L21 44C20.433594 44 20 43.566406 20 43Z"/></svg>