<svg xmlns="http://www.w3.org/2000/svg" viewBox="0 0 50 50"><path d="M9 3 A 1.0001 1.0001 0 0 0 8 4L8 46 A 1.0001 1.0001 0 0 0 9 47L26.738281 47C31.338293 47 35.150301 45.812597 37.833984 43.560547C40.517667 41.308497 42 37.992598 42 34.066406C42 29.029124 38.803343 25.109069 34.1875 23.644531C37.578178 21.99962 39.958984 18.46118 39.958984 14.478516C39.958984 11.003265 38.639387 8.049715 36.242188 6.0488281C33.844988 4.0479412 30.446858 3 26.337891 3L9 3 z M 10 5L26.337891 5C30.106924 5 33.016637 5.9611213 34.960938 7.5839844C36.905237 9.2068475 37.958984 11.492766 37.958984 14.478516C37.958984 18.279819 35.23518 21.773174 31.787109 22.523438 A 1.0001 1.0001 0 0 0 31 23.5L31 24 A 1.0001 1.0001 0 0 0 31.871094 24.992188C36.777696 25.625948 40 29.196114 40 34.066406C40 37.503214 38.779692 40.155597 36.546875 42.029297C34.314058 43.902997 30.99427 45 26.738281 45L10 45L10 5 z M 17 9 A 1.0001 1.0001 0 0 0 16 10L16 22 A 1.0001 1.0001 0 0 0 17 23L23.060547 23C25.791168 23 27.997352 22.453913 29.580078 21.251953C31.162805 20.049993 32 18.176779 32 16C32 13.877559 31.235731 12.042293 29.806641 10.818359C28.37755 9.5944258 26.374072 9 23.996094 9L17 9 z M 18 11L23.996094 11C26.041115 11 27.5387 11.509575 28.505859 12.337891C29.473019 13.166207 30 14.331441 30 16C30 17.704221 29.461117 18.830413 28.371094 19.658203C27.28107 20.485993 25.518926 21 23.060547 21L18 21L18 11 z M 17 26 A 1.0001 1.0001 0 0 0 16 27L16 40 A 1.0001 1.0001 0 0 0 17 41L24.628906 41C27.500826 41 29.825862 40.411631 31.482422 39.111328C33.138982 37.811025 34 35.80069 34 33.427734C34 31.087169 33.098074 29.097904 31.392578 27.832031C29.687082 26.566158 27.3054 26 24.341797 26L17 26 z M 18 28L24.341797 28C27.044193 28 28.992215 28.543576 30.199219 29.439453C31.406223 30.33533 32 31.5613 32 33.427734C32 35.349778 31.408533 36.624662 30.246094 37.537109C29.083654 38.449556 27.222987 39 24.628906 39L18 39L18 28 z"/></svg>