<svg xmlns="http://www.w3.org/2000/svg" viewBox="0 0 50 50"><path d="M25.5625 2.78125C25.011719 2.839844 24.609375 3.339844 24.671875 3.890625C24.730469 4.441406 25.230469 4.84375 25.78125 4.78125C30.132813 4.78125 32.070313 6.046875 33.03125 7.1875C33.933594 8.257813 33.996094 9.167969 34 9.28125C34 9.285156 34 9.3125 34 9.3125C34 9.3125 34 9.34375 34 9.34375L34 14.6875C33.941406 14.882813 33.941406 15.085938 34 15.28125L34 34.8125C33.972656 34.945313 33.972656 35.085938 34 35.21875L34 40.6875C34 40.6875 34.03125 41.683594 33.09375 42.8125C32.15625 43.941406 30.21875 45.21875 25.78125 45.21875C25.421875 45.214844 25.085938 45.402344 24.902344 45.714844C24.722656 46.027344 24.722656 46.410156 24.902344 46.722656C25.085938 47.035156 25.421875 47.222656 25.78125 47.21875C30.617188 47.21875 33.265625 45.734375 34.625 44.09375C34.769531 43.917969 34.882813 43.738281 35 43.5625C35.117188 43.738281 35.230469 43.917969 35.375 44.09375C36.734375 45.734375 39.382813 47.21875 44.21875 47.21875C44.578125 47.222656 44.914063 47.035156 45.097656 46.722656C45.277344 46.410156 45.277344 46.027344 45.097656 45.714844C44.914063 45.402344 44.578125 45.214844 44.21875 45.21875C39.78125 45.21875 37.84375 43.941406 36.90625 42.8125C35.96875 41.683594 36 40.6875 36 40.6875L36 36L49 36L49 14L36 14L36 9.28125C36.003906 9.167969 36.066406 8.257813 36.96875 7.1875C37.929688 6.046875 39.867188 4.78125 44.21875 4.78125C44.578125 4.785156 44.914063 4.597656 45.097656 4.285156C45.277344 3.972656 45.277344 3.589844 45.097656 3.277344C44.914063 2.964844 44.578125 2.777344 44.21875 2.78125C39.460938 2.78125 36.8125 4.277344 35.4375 5.90625C35.273438 6.097656 35.128906 6.308594 35 6.5C34.871094 6.308594 34.726563 6.097656 34.5625 5.90625C33.1875 4.277344 30.539063 2.78125 25.78125 2.78125C25.707031 2.773438 25.636719 2.773438 25.5625 2.78125 Z M 1 14L1 36L31 36L31 34L3 34L3 16L31 16L31 14 Z M 36 16L47 16L47 34L36 34Z"/></svg>