<svg xmlns="http://www.w3.org/2000/svg" viewBox="0 0 50 50"><path d="M4 4L4 5L4 46L46 46L46 4L4 4 z M 6 6L24.585938 6L19.292969 11.292969 A 1.0001 1.0001 0 1 0 20.707031 12.707031L24 9.4140625L24 19 A 1.0001 1.0001 0 1 0 26 19L26 9.4140625L29.292969 12.707031 A 1.0001 1.0001 0 1 0 30.707031 11.292969L25.414062 6L44 6L44 44L25.414062 44L30.707031 38.707031 A 1.0001 1.0001 0 1 0 29.292969 37.292969L26 40.585938L26 31 A 1.0001 1.0001 0 0 0 24.984375 29.986328 A 1.0001 1.0001 0 0 0 24 31L24 40.585938L20.707031 37.292969 A 1.0001 1.0001 0 0 0 19.990234 36.990234 A 1.0001 1.0001 0 0 0 19.292969 38.707031L24.585938 44L6 44L6 6 z"/></svg>