<svg xmlns="http://www.w3.org/2000/svg" viewBox="0 0 50 50"><path d="M8 3 A 1.0001 1.0001 0 0 0 7 4L7 46 A 1.0001 1.0001 0 0 0 8 47L16 47 A 1.0001 1.0001 0 0 0 17 46L17 29L33 29L33 46 A 1.0001 1.0001 0 0 0 34 47L42 47 A 1.0001 1.0001 0 0 0 43 46L43 4 A 1.0001 1.0001 0 0 0 42 3L34 3 A 1.0001 1.0001 0 0 0 33 4L33 20L17 20L17 4 A 1.0001 1.0001 0 0 0 16 3L8 3 z M 9 5L15 5L15 21 A 1.0001 1.0001 0 0 0 16 22L34 22 A 1.0001 1.0001 0 0 0 35 21L35 5L41 5L41 45L35 45L35 28 A 1.0001 1.0001 0 0 0 34 27L16 27 A 1.0001 1.0001 0 0 0 15 28L15 45L9 45L9 5 z"/></svg>