<svg xmlns="http://www.w3.org/2000/svg" viewBox="0 0 16 16"><path d="M7.5 1C6.6774952 1 6 1.6774952 6 2.5C6 3.1468403 6.4209721 3.6977678 7 3.90625L7 6L5.5 6L5 6L5 7L5.5 7L7 7L7 12.955078C5.1607189 12.769809 3.6957688 11.619163 3.1992188 10.376953L5 9.4570312L1.6132812 8L1 11.5L2.2734375 10.849609C2.946596 12.497888 4.8033546 13.780553 7 13.957031L7 14.5L7.0058594 14.5L7 14.505859L7.5 15L8 14.505859L7.9941406 14.5L8 14.5L8 13.957031C10.196645 13.780553 12.053404 12.497888 12.726562 10.849609L14 11.5L13.388672 8L10 9.4570312L11.800781 10.376953C11.304231 11.619163 9.8392813 12.769809 8 12.955078L8 7L9.5 7L10 7L10 6L9.5 6L8 6L8 3.90625C8.5790279 3.6977678 9 3.1468403 9 2.5C9 1.6774952 8.3225048 1 7.5 1 z M 7.5 2C7.7820647 2 8 2.2179353 8 2.5C8 2.7820647 7.7820647 3 7.5 3C7.2179353 3 7 2.7820647 7 2.5C7 2.2179353 7.2179353 2 7.5 2 z"/></svg>