<svg xmlns="http://www.w3.org/2000/svg" viewBox="0 0 50 50"><path d="M15 3C13.355469 3 12 4.355469 12 6L12 8.832031C11.980469 8.941406 11.980469 9.050781 12 9.15625L12 14.09375C9.171875 14.570313 7 17.039063 7 20L7 21L6.5 21C5.132813 21 4 22.132813 4 23.5L4 32.5C4 33.867188 5.132813 35 6.5 35L12 35L12 39.832031C11.980469 39.941406 11.980469 40.050781 12 40.15625L12 44C12 45.644531 13.355469 47 15 47L35 47C36.644531 47 38 45.644531 38 44L38 40.167969C38.019531 40.058594 38.019531 39.949219 38 39.84375L38 9.167969C38.019531 9.058594 38.019531 8.949219 38 8.84375L38 6C38 4.355469 36.644531 3 35 3 Z M 15 5L35 5C35.554688 5 36 5.445313 36 6L36 8L14 8L14 6C14 5.445313 14.445313 5 15 5 Z M 14 10L36 10L36 39L14 39L14 35L19.5 35C20.867188 35 22 33.867188 22 32.5L22 23.5C22 22.132813 20.867188 21 19.5 21L19 21L19 20C19 17.039063 16.828125 14.570313 14 14.09375 Z M 13 16C15.21875 16 17 17.78125 17 20L17 21L9 21L9 20C9 17.78125 10.78125 16 13 16 Z M 6.5 23L7.832031 23C7.941406 23.019531 8.050781 23.019531 8.15625 23L17.832031 23C17.941406 23.019531 18.050781 23.019531 18.15625 23L19.5 23C19.785156 23 20 23.214844 20 23.5L20 32.5C20 32.785156 19.785156 33 19.5 33L6.5 33C6.214844 33 6 32.785156 6 32.5L6 23.5C6 23.214844 6.214844 23 6.5 23 Z M 14 41L36 41L36 44C36 44.554688 35.554688 45 35 45L15 45C14.445313 45 14 44.554688 14 44 Z M 22 42C21.640625 41.996094 21.304688 42.183594 21.121094 42.496094C20.941406 42.808594 20.941406 43.191406 21.121094 43.503906C21.304688 43.816406 21.640625 44.003906 22 44L28 44C28.359375 44.003906 28.695313 43.816406 28.878906 43.503906C29.058594 43.191406 29.058594 42.808594 28.878906 42.496094C28.695313 42.183594 28.359375 41.996094 28 42Z"/></svg>