<svg xmlns="http://www.w3.org/2000/svg" viewBox="0 0 50 50"><path d="M39.375 0C39.117188 0.0351563 38.878906 0.167969 38.71875 0.375L36.53125 3L33 3C32.449219 3 32 3.449219 32 4L32 7.53125L29.375 9.71875C29.136719 9.910156 29 10.195313 29 10.5C29 10.804688 29.136719 11.089844 29.375 11.28125L32 13.46875L32 17C32 17.550781 32.449219 18 33 18L36.53125 18L38.71875 20.625C38.910156 20.863281 39.195313 21 39.5 21C39.804688 21 40.089844 20.863281 40.28125 20.625L42.46875 18L46 18C46.550781 18 47 17.550781 47 17L47 13.46875L49.625 11.28125C49.863281 11.089844 50 10.804688 50 10.5C50 10.195313 49.863281 9.910156 49.625 9.71875L47 7.53125L47 4C47 3.449219 46.550781 3 46 3L42.46875 3L40.28125 0.375C40.066406 0.101563 39.722656 -0.0429688 39.375 0 Z M 39.5 2.5625L41.21875 4.625C41.410156 4.863281 41.695313 5 42 5L45 5L45 8C45 8.304688 45.136719 8.589844 45.375 8.78125L47.4375 10.5L45.375 12.21875C45.136719 12.410156 45 12.695313 45 13L45 16L42 16C41.695313 16 41.410156 16.136719 41.21875 16.375L39.5 18.4375L37.78125 16.375C37.589844 16.136719 37.304688 16 37 16L34 16L34 13C34 12.695313 33.863281 12.410156 33.625 12.21875L31.5625 10.5L33.625 8.78125C33.863281 8.589844 34 8.304688 34 8L34 5L37 5C37.304688 5 37.589844 4.863281 37.78125 4.625 Z M 39.5 6C37.027344 6 35 8.027344 35 10.5C35 12.972656 37.027344 15 39.5 15C41.972656 15 44 12.972656 44 10.5C44 8.027344 41.972656 6 39.5 6 Z M 39.5 8C40.890625 8 42 9.109375 42 10.5C42 11.890625 40.890625 13 39.5 13C38.109375 13 37 11.890625 37 10.5C37 9.109375 38.109375 8 39.5 8 Z M 16.875 18C16.554688 18.042969 16.273438 18.242188 16.125 18.53125L0.125 48.53125C-0.0390625 48.839844 -0.03125 49.210938 0.148438 49.511719C0.328125 49.8125 0.652344 49.996094 1 50L33 50C33.03125 50 33.0625 50 33.09375 50L49 50C49.347656 49.996094 49.671875 49.8125 49.851563 49.511719C50.03125 49.210938 50.039063 48.839844 49.875 48.53125L36.875 24.53125C36.683594 24.164063 36.285156 23.953125 35.875 24C35.554688 24.042969 35.273438 24.242188 35.125 24.53125L28.03125 37.5625L17.875 18.53125C17.683594 18.164063 17.285156 17.953125 16.875 18 Z M 17 21.125L31.34375 48L2.65625 48 Z M 36 27.09375L47.34375 48L33.59375 48L29.125 39.65625Z"/></svg>