<svg xmlns="http://www.w3.org/2000/svg" viewBox="0 0 50 50"><path d="M7.90625 -0.03125C7.863281 -0.0234375 7.820313 -0.0117188 7.78125 0C7.316406 0.105469 6.988281 0.523438 7 1L7 14.5625L3.40625 11C3.199219 10.777344 2.898438 10.664063 2.59375 10.6875C2.203125 10.726563 1.871094 10.988281 1.746094 11.355469C1.617188 11.726563 1.71875 12.136719 2 12.40625L7.15625 17.5625L7.28125 17.71875C7.328125 17.765625 7.382813 17.808594 7.4375 17.84375L8 18.40625L8.5625 17.84375C8.644531 17.78125 8.71875 17.707031 8.78125 17.625L14 12.40625C14.359375 12.128906 14.484375 11.644531 14.308594 11.226563C14.132813 10.808594 13.699219 10.5625 13.25 10.625C12.992188 10.660156 12.753906 10.792969 12.59375 11L9 14.5625L9 1C9.011719 0.710938 8.894531 0.433594 8.6875 0.238281C8.476563 0.0390625 8.191406 -0.0585938 7.90625 -0.03125 Z M 24.90625 -0.03125C24.863281 -0.0234375 24.820313 -0.0117188 24.78125 0C24.316406 0.105469 23.988281 0.523438 24 1L24 14.5625L20.40625 11C20.199219 10.777344 19.898438 10.664063 19.59375 10.6875C19.203125 10.726563 18.871094 10.988281 18.746094 11.355469C18.617188 11.726563 18.71875 12.136719 19 12.40625L24.21875 17.65625C24.28125 17.730469 24.355469 17.792969 24.4375 17.84375L25 18.40625L25.5625 17.84375C25.644531 17.78125 25.71875 17.707031 25.78125 17.625L31 12.40625C31.296875 12.164063 31.433594 11.777344 31.347656 11.402344C31.261719 11.03125 30.96875 10.738281 30.597656 10.652344C30.222656 10.566406 29.835938 10.703125 29.59375 11L26 14.5625L26 1C26.011719 0.710938 25.894531 0.433594 25.6875 0.238281C25.476563 0.0390625 25.191406 -0.0585938 24.90625 -0.03125 Z M 41.90625 -0.03125C41.863281 -0.0234375 41.820313 -0.0117188 41.78125 0C41.316406 0.105469 40.988281 0.523438 41 1L41 14.5625L37.40625 11C37.199219 10.777344 36.898438 10.664063 36.59375 10.6875C36.203125 10.726563 35.871094 10.988281 35.746094 11.355469C35.617188 11.726563 35.71875 12.136719 36 12.40625L41.15625 17.5625L41.21875 17.65625C41.28125 17.730469 41.355469 17.792969 41.4375 17.84375L42 18.40625L42.5625 17.84375C42.644531 17.78125 42.71875 17.707031 42.78125 17.625L48 12.40625C48.296875 12.164063 48.433594 11.777344 48.347656 11.402344C48.261719 11.03125 47.96875 10.738281 47.597656 10.652344C47.222656 10.566406 46.835938 10.703125 46.59375 11L43 14.5625L43 1C43.011719 0.710938 42.894531 0.433594 42.6875 0.238281C42.476563 0.0390625 42.191406 -0.0585938 41.90625 -0.03125 Z M 0 24L0 26L50 26L50 24 Z M 14.90625 30.96875C14.863281 30.976563 14.820313 30.988281 14.78125 31C14.316406 31.105469 13.988281 31.523438 14 32L14 45.5625L10.40625 42C10.199219 41.777344 9.898438 41.664063 9.59375 41.6875C9.203125 41.726563 8.871094 41.988281 8.746094 42.355469C8.617188 42.726563 8.71875 43.136719 9 43.40625L14.28125 48.71875C14.328125 48.765625 14.382813 48.808594 14.4375 48.84375L15 49.40625L15.5625 48.84375C15.644531 48.78125 15.71875 48.707031 15.78125 48.625L21 43.40625C21.359375 43.128906 21.484375 42.644531 21.308594 42.226563C21.132813 41.808594 20.699219 41.5625 20.25 41.625C19.992188 41.660156 19.753906 41.792969 19.59375 42L16 45.5625L16 32C16.011719 31.710938 15.894531 31.433594 15.6875 31.238281C15.476563 31.039063 15.191406 30.941406 14.90625 30.96875 Z M 35.90625 30.96875C35.863281 30.976563 35.820313 30.988281 35.78125 31C35.316406 31.105469 34.988281 31.523438 35 32L35 45.5625L31.40625 42C31.199219 41.777344 30.898438 41.664063 30.59375 41.6875C30.203125 41.726563 29.871094 41.988281 29.746094 42.355469C29.617188 42.726563 29.71875 43.136719 30 43.40625L35.15625 48.5625L35.21875 48.65625C35.28125 48.730469 35.355469 48.792969 35.4375 48.84375L36 49.40625L36.5625 48.84375C36.644531 48.78125 36.71875 48.707031 36.78125 48.625L42 43.40625C42.296875 43.164063 42.433594 42.777344 42.347656 42.402344C42.261719 42.03125 41.96875 41.738281 41.597656 41.652344C41.222656 41.566406 40.835938 41.703125 40.59375 42L37 45.5625L37 32C37.011719 31.710938 36.894531 31.433594 36.6875 31.238281C36.476563 31.039063 36.191406 30.941406 35.90625 30.96875Z"/></svg>