<svg xmlns="http://www.w3.org/2000/svg" viewBox="0 0 50 50"><path d="M25 1C16.161847 1 9 8.1618474 9 17C9 24.167647 12.856197 32.005654 16.650391 38.126953C20.444584 44.248252 24.242188 48.652344 24.242188 48.652344 A 1.0001 1.0001 0 0 0 25.751953 48.660156C25.751953 48.660156 29.551876 44.328088 33.347656 38.242188C37.143436 32.156298 41 24.309712 41 17C41 8.1618474 33.838153 1 25 1 z M 25 3C32.761847 3 39 9.2381526 39 17C39 23.590288 35.356564 31.244494 31.652344 37.183594C28.554724 42.150111 25.936133 45.306962 25.005859 46.40625C24.080153 45.294989 21.453279 42.07952 18.349609 37.072266C14.643803 31.093564 11 23.432353 11 17C11 9.2381526 17.238153 3 25 3 z"/></svg>