<svg xmlns="http://www.w3.org/2000/svg" viewBox="0 0 50 50"><path d="M24.15625 3C23.851563 3 23.550781 3.0625 23.25 3.15625C22.644531 3.347656 22.066406 3.707031 21.5625 4.21875L9.8125 15.96875L3 15.96875C1.332031 15.96875 -0.03125 17.332031 -0.03125 19L-0.03125 31C-0.03125 32.667969 1.332031 34.03125 3 34.03125L9.8125 34.03125L21.53125 45.6875C22.648438 46.808594 24.082031 47.300781 25.25 46.75C26.425781 46.195313 27 44.859375 27 43.3125L27 6.3125C27 4.8125 26.234375 3.566406 25.0625 3.15625C24.769531 3.054688 24.460938 3 24.15625 3 Z M 24.1875 5C24.289063 5 24.367188 5.007813 24.4375 5.03125C24.722656 5.128906 25 5.382813 25 6.3125L25 43.3125C25 44.378906 24.648438 44.855469 24.40625 44.96875C24.164063 45.082031 23.675781 45.09375 22.90625 44.3125L10.3125 31.71875C10.292969 31.707031 10.269531 31.695313 10.25 31.6875C10.324219 31.753906 10 31.121094 10 30.75L10 19.25C10 18.878906 10.335938 18.238281 10.25 18.3125C10.273438 18.292969 10.292969 18.273438 10.3125 18.25L22.96875 5.625C23.4375 5.152344 23.878906 5.003906 24.1875 5 Z M 34.71875 12.125C34.273438 12.179688 33.917969 12.527344 33.855469 12.972656C33.789063 13.414063 34.027344 13.847656 34.4375 14.03125C38.339844 16.136719 41 20.246094 41 25C41 29.738281 38.351563 33.859375 34.46875 35.96875C33.984375 36.234375 33.808594 36.84375 34.078125 37.328125C34.34375 37.8125 34.953125 37.988281 35.4375 37.71875C39.945313 35.269531 43 30.484375 43 25C43 19.5 39.9375 14.695313 35.40625 12.25C35.226563 12.148438 35.019531 12.105469 34.8125 12.125C34.78125 12.125 34.75 12.125 34.71875 12.125 Z M 3 18.03125L8.1875 18.03125C8.058594 18.414063 8 18.832031 8 19.25L8 30.75C8 31.167969 8.0625 31.582031 8.1875 31.96875L3 31.96875C2.460938 31.96875 2.03125 31.539063 2.03125 31L2.03125 19C2.03125 18.460938 2.460938 18.03125 3 18.03125 Z M 30.53125 18.40625C30.046875 18.464844 29.679688 18.863281 29.65625 19.351563C29.632813 19.835938 29.960938 20.269531 30.4375 20.375C32.484375 20.910156 34 22.777344 34 25C34 27.222656 32.484375 29.089844 30.4375 29.625C29.902344 29.761719 29.582031 30.308594 29.71875 30.84375C29.855469 31.378906 30.402344 31.699219 30.9375 31.5625C33.847656 30.800781 36 28.136719 36 25C36 21.863281 33.847656 19.199219 30.9375 18.4375C30.804688 18.398438 30.667969 18.390625 30.53125 18.40625Z"/></svg>