<svg xmlns="http://www.w3.org/2000/svg" viewBox="0 0 50 50"><path d="M2 4L2 6L48 6L48 4 Z M 2 14L2 16L31 16L31 14 Z M 46.875 14C46.652344 14.023438 46.441406 14.125 46.28125 14.28125L36.28125 24.28125C36.085938 24.46875 35.976563 24.730469 35.976563 25C35.976563 25.269531 36.085938 25.53125 36.28125 25.71875L46.28125 35.71875C46.566406 36.015625 47.007813 36.105469 47.386719 35.945313C47.765625 35.789063 48.007813 35.410156 48 35L48 15C48.003906 14.710938 47.878906 14.4375 47.664063 14.246094C47.449219 14.054688 47.160156 13.964844 46.875 14 Z M 46 17.4375L46 32.5625L38.4375 25 Z M 2 24L2 26L31 26L31 24 Z M 2 34L2 36L31 36L31 34 Z M 2 44L2 46L48 46L48 44Z"/></svg>