<svg xmlns="http://www.w3.org/2000/svg" viewBox="0 0 50 50"><path d="M25 2C23.35503 2 22 3.3550302 22 5C22 5.5779091 22.185017 6.0127881 22.396484 6.4941406C22.607952 6.9754932 22.87313 7.4650217 23.134766 7.9160156C23.172013 7.9802202 23.199304 8.0195792 23.236328 8.0820312C13.027139 8.9776197 5 17.560944 5 28C5 39.033849 13.966143 48 25 48C36.033857 48 45 39.033849 45 28C45 17.560944 36.972861 8.9776197 26.763672 8.0820312C26.800696 8.0195792 26.827987 7.9802202 26.865234 7.9160156C27.12687 7.4650217 27.392048 6.9754932 27.603516 6.4941406C27.814983 6.0127881 28 5.5779091 28 5C28 3.3550302 26.64497 2 25 2 z M 25 4C25.56503 4 26 4.4349698 26 5C26 4.974591 25.93502 5.3172119 25.771484 5.6894531C25.607952 6.0616943 25.37313 6.5012283 25.134766 6.9121094C25.067439 7.0281634 25.066131 7.0174785 25 7.1269531C24.933869 7.0174785 24.932561 7.0281634 24.865234 6.9121094C24.62687 6.5012283 24.392048 6.0616943 24.228516 5.6894531C24.064983 5.3172119 24 4.9745909 24 5C24 4.4349698 24.43497 4 25 4 z M 25 10C34.952978 10 43 18.047029 43 28C43 37.952971 34.952978 46 25 46C15.047022 46 7 37.952971 7 28C7 18.047029 15.047022 10 25 10 z M 24.984375 12.986328 A 1.0001 1.0001 0 0 0 24 14L24 25.175781 A 3 3 0 0 0 22.294922 29.291016L17.292969 34.292969 A 1.0001 1.0001 0 1 0 18.707031 35.707031L23.707031 30.707031 A 3 3 0 0 0 25 31 A 3 3 0 0 0 26 25.171875L26 14 A 1.0001 1.0001 0 0 0 24.984375 12.986328 z"/></svg>