<svg xmlns="http://www.w3.org/2000/svg" viewBox="0 0 50 50">
  <path d="M25 1 A 1.0001 1.0001 0 0 0 24.068359 1.6386719L17.902344 17.535156L0.94921875 18.400391 A 1.0001 1.0001 0 0 0 0.3671875 20.173828L13.568359 30.966797L9.2324219 47.34375 A 1.0001 1.0001 0 0 0 10.740234 48.441406L25 39.289062L39.259766 48.441406 A 1.0001 1.0001 0 0 0 40.767578 47.34375L36.431641 30.966797L49.632812 20.173828 A 1.0001 1.0001 0 0 0 49.050781 18.400391L32.097656 17.535156L25.931641 1.6386719 A 1.0001 1.0001 0 0 0 25 1 z M 25 4.7636719L30.466797 18.861328 A 1.0001 1.0001 0 0 0 31.349609 19.498047L46.359375 20.265625L34.667969 29.826172 A 1.0001 1.0001 0 0 0 34.333984 30.855469L38.175781 45.369141L25.541016 37.257812 A 1.0001 1.0001 0 0 0 24.458984 37.257812L11.824219 45.369141L15.666016 30.855469 A 1.0001 1.0001 0 0 0 15.332031 29.826172L3.640625 20.265625L18.650391 19.498047 A 1.0001 1.0001 0 0 0 19.533203 18.861328L25 4.7636719 z" fill="#5B5B5B" />
</svg>